<?xml version="1.0" encoding="UTF-8"?>
<svg width="37px" height="34px" viewBox="0 0 37 34" version="1.1" xmlns="http://www.w3.org/2000/svg" xmlns:xlink="http://www.w3.org/1999/xlink">
    <!-- Generator: Sketch 47.1 (45422) - http://www.bohemiancoding.com/sketch -->
    <title>ball-&amp;-bone</title>
    <desc>Created with Sketch.</desc>
    <defs></defs>
    <g id="Page-1" stroke="none" stroke-width="1" fill="none" fill-rule="evenodd">
        <g id="Tablet" transform="translate(-443.000000, -169.000000)" stroke="#547DFB">
            <g id="ball-&amp;-bone" transform="translate(444.000000, 170.000000)">
                <ellipse id="Oval-2" cx="8.5" cy="24.5" rx="8.5" ry="7.5"></ellipse>
                <g id="Group-7" transform="translate(9.000000, 0.000000)">
                    <path d="M4.76950339,4.82867751 C4.30410541,4.09605947 3.50619249,3.61290323 2.6,3.61290323 C1.16405965,3.61290323 0,4.82606713 0,6.32258065 C0,7.81909416 1.16405965,9.03225806 2.6,9.03225806 C3.00502737,9.03225806 3.38842386,8.93573848 3.73016799,8.76356536 L17.2935438,23.3085051 C16.7847773,23.8031238 16.4666667,24.5080067 16.4666667,25.2903226 C16.4666667,26.7868361 17.6307263,28 19.0666667,28 C20.502607,28 21.6666667,26.7868361 21.6666667,25.2903226 C21.6666667,24.8078926 21.5456953,24.3549088 21.3336417,23.9625212 L21.6426082,23.6744053 C22.1053732,24.1169679 22.7224175,24.3870968 23.4,24.3870968 C24.8359403,24.3870968 26,23.1739329 26,21.6774194 C26,20.1809058 24.8359403,18.9677419 23.4,18.9677419 C22.9488281,18.9677419 22.5244967,19.0875072 22.1546795,19.2981964 L8.61380197,4.77738302 C9.17630843,4.28034371 9.53333333,3.53846318 9.53333333,2.70967742 C9.53333333,1.2131639 8.36927368,0 6.93333333,0 C5.49739298,0 4.33333333,1.2131639 4.33333333,2.70967742 C4.33333333,3.43099239 4.60376892,4.08647928 5.04473564,4.57201928 L4.76950339,4.82867751 Z" id="Combined-Shape"></path>
                    <path d="M3.99961642,24.9506054 C3.99961642,22.3479793 1.01617448,20.1488672 2.42976201,21.3254518 C3.39576239,22.129492 4.01768874,24.0338947 3.99961642,24.9506054 C3.97740253,26.0773951 3.44246702,27.910539 2.33026998,28.7569356 C1.02742244,29.7484198 3.99961642,27.5532314 3.99961642,24.9506054 Z" id="Oval-4" transform="translate(3.000000, 25.000000) rotate(17.000000) translate(-3.000000, -25.000000) "></path>
                </g>
            </g>
        </g>
    </g>
</svg>