<?xml version="1.0" encoding="UTF-8"?>
<svg width="30px" height="40px" viewBox="0 0 30 40" version="1.1" xmlns="http://www.w3.org/2000/svg" xmlns:xlink="http://www.w3.org/1999/xlink">
    <!-- Generator: Sketch 47.1 (45422) - http://www.bohemiancoding.com/sketch -->
    <title>footsteps</title>
    <desc>Created with Sketch.</desc>
    <defs></defs>
    <g id="Page-1" stroke="none" stroke-width="1" fill="none" fill-rule="evenodd">
        <g id="Tablet" transform="translate(-322.000000, -132.000000)" stroke="#547DFB">
            <g id="footsteps" transform="translate(323.000000, 133.000000)">
                <g id="Group-4">
                    <path d="M8.39386713,19.0102747 C8.94896397,19.0102747 8.66870971,16.3554316 8.94897437,14.5285387 C9.23919975,12.6367172 11,11.5286742 11,9 C11,6.8739399 10.7357768,4.06525543 9.98244668,2.52523376 C8.97454968,0.464804835 7.23830717,0 5.5,0 C2.46243388,0 0,4.02943725 0,9 C0,12.0630481 0.328016812,17.3847224 1.75657192,19.0102747 C2.64620526,20.0225881 1.75657192,19.0102747 8.39386713,19.0102747 Z" id="Oval"></path>
                    <path d="M3.28975302,22.1327459 L3.28975302,27.6327459 C3.28975302,29.0134578 4.40904115,30.1327459 5.78975302,30.1327459 L7.28859868,30.1327459 C8.66931055,30.1327459 9.78859868,29.0134578 9.78859868,27.6327459 L9.78859868,22.1327459 L3.28975302,22.1327459 Z" id="Rectangle-5" transform="translate(6.539176, 26.132746) rotate(-11.000000) translate(-6.539176, -26.132746) "></path>
                </g>
                <g id="Group-4-Copy" transform="translate(22.000000, 24.000000) scale(-1, 1) translate(-22.000000, -24.000000) translate(16.000000, 8.000000)">
                    <path d="M8.39386713,19.0102747 C8.94896397,19.0102747 8.66870971,16.3554316 8.94897437,14.5285387 C9.23919975,12.6367172 11,11.5286742 11,9 C11,6.8739399 10.7357768,4.06525543 9.98244668,2.52523376 C8.97454968,0.464804835 7.23830717,0 5.5,0 C2.46243388,0 0,4.02943725 0,9 C0,12.0630481 0.328016812,17.3847224 1.75657192,19.0102747 C2.64620526,20.0225881 1.75657192,19.0102747 8.39386713,19.0102747 Z" id="Oval"></path>
                    <path d="M3.28975302,22.1327459 L3.28975302,27.6327459 C3.28975302,29.0134578 4.40904115,30.1327459 5.78975302,30.1327459 L7.28859868,30.1327459 C8.66931055,30.1327459 9.78859868,29.0134578 9.78859868,27.6327459 L9.78859868,22.1327459 L3.28975302,22.1327459 Z" id="Rectangle-5" transform="translate(6.539176, 26.132746) rotate(-11.000000) translate(-6.539176, -26.132746) "></path>
                </g>
            </g>
        </g>
    </g>
</svg>