<?xml version="1.0" encoding="UTF-8"?>
<svg width="136px" height="42px" viewBox="0 0 136 42" version="1.1" xmlns="http://www.w3.org/2000/svg" xmlns:xlink="http://www.w3.org/1999/xlink">
    <!-- Generator: Sketch 49.3 (51167) - http://www.bohemiancoding.com/sketch -->
    <title>oneSteam _vector</title>
    <desc>Created with Sketch.</desc>
    <defs></defs>
    <g id="Page-1" stroke="none" stroke-width="1" fill="none" fill-rule="evenodd">
        <g id="oneSteam-_vector" transform="translate(-1.000000, -2.000000)">
            <polygon id="Shape" fill="#6CCAE8" fill-rule="nonzero" points="33.655142 38.7337506 28.7284177 44 43 44 3.85630623 15 3 16.0266172 3.05418945 16.0749817"></polygon>
            <path d="M21.7119061,5.14554965 C22.3717394,7.70463449 21.8812751,10.1845864 20.413682,10.7955742 C18.5679943,11.5644884 17.0409591,10.0711512 16.3355265,7.87478731 C15.575266,5.50691213 16.1487863,2.98043142 17.6334792,2.22612122 C19.1181721,1.47181101 21.0670011,2.64488055 21.7119061,5.14554965 Z" id="Shape" fill="#184794" fill-rule="nonzero"></path>
            <path d="M3,16.7095634 C12.1119565,4.8483854 23.9992042,19.8426199 23.6321395,31 C27.0486644,6.30927977 5.60954733,-0.859698139 3,16.7095634 Z" id="Shape" fill="#184794" fill-rule="nonzero"></path>
            <path d="M18.928301,18.2959184 C15.8046224,14.1963265 12.9421137,13.2066327 11.332566,13 L10,18.4339796 L19,25 L18.928301,18.2959184" id="Shape" fill="#184794" fill-rule="nonzero"></path>
            <g id="Group"></g>
            <path d="M18.6781205,28.5160846 L8.73817784,21 C7.70102351,25.960954 4.78484748,34.9841478 1,42.9762288 C5.4368981,42.9414543 8.71301481,43.8210267 10.2471389,37.4754719 C11.019808,34.277172 11.4207753,29.7682869 13.1075187,27.6933001 C13.1075187,27.6933001 13.7491759,36.255173 14.2324701,38.7860571 C14.9014784,42.2848856 17.6341284,42.8352165 20,43 L18.6781205,28.5160846 Z" id="Shape" fill="#184794" fill-rule="nonzero"></path>
            <path d="M36.3924682,38 C35.046117,36.9820051 34.861777,35.3060154 35.074711,34.2725964 C35.287645,33.2391774 35.8148087,32.2199486 36.2382431,30.9101285 C36.6796249,29.543856 36.8092104,29.1452956 36.9552223,28.0205656 C37.107318,26.848329 36.8791744,26 36.8791744,26 C36.8791744,26 37.8194301,26.8103856 37.9590539,27.9588689 C38.0959401,29.0848329 37.8830061,29.840617 37.4191142,31.1362468 C36.9552223,32.4318766 36.468516,33.4652956 36.255582,34.4987147 C36.0426481,35.5321337 35.8905524,36.688946 36.3924682,38 Z" id="Shape" fill="#6CCAE8" fill-rule="nonzero"></path>
            <path d="M39.3924682,36 C38.046117,34.9820051 37.861777,33.3060154 38.074711,32.2725964 C38.287645,31.2391774 38.8151129,30.2202571 39.2382431,28.9101285 C39.6796249,27.543856 39.8095146,27.1456041 39.9552223,26.0205656 C40.107318,24.848329 39.8791744,24 39.8791744,24 C39.8791744,24 40.8194301,24.8103856 40.9590539,25.9588689 C41.0959401,27.0848329 40.8830061,27.840617 40.4191142,29.1362468 C39.9552223,30.4318766 39.468516,31.4652956 39.255582,32.4987147 C39.0426481,33.5321337 38.8905524,34.688946 39.3924682,36 Z" id="Shape" fill="#6CCAE8" fill-rule="nonzero"></path>
            <path d="M41.3926294,39 C40.0461091,37.9820051 39.8617876,36.3060154 40.0747002,35.2725964 C40.2876128,34.2391774 40.8150279,33.2202571 41.2381157,31.9101285 C41.6794531,30.543856 41.8093298,30.1456041 41.9553271,29.0205656 C42.1074075,27.848329 41.8792868,27 41.8792868,27 C41.8792868,27 42.8194482,27.8103856 42.9590581,28.9588689 C43.0959305,30.0848329 42.8830178,30.840617 42.4191724,32.1362468 C41.9553271,33.4318766 41.4686696,34.4652956 41.255757,35.4987147 C41.0428444,36.5321337 40.8907639,37.688946 41.3926294,39 Z" id="Shape" fill="#6CCAE8" fill-rule="nonzero"></path>
            <path d="M67.8730009,2.21026162 C67.1572628,2.12693213 65,2 65,2 L65,30 C65,30 67.4630233,29.9644719 68.2700589,29.9150556 C75.1460828,29.4951783 76.9786364,25.7366308 76.9906946,20.2875929 C76.9955753,18.1969271 77.0194045,14.0004153 76.9642815,11.9249296 C76.8112577,6.12157985 74.1891814,2.94601578 67.8730009,2.21026162 Z" id="Shape" fill="#6CCAE8" fill-rule="nonzero"></path>
            <path d="M49.757132,9.66093828 L54.4889358,2 C53.8808281,2.01592035 53.2439886,2.03249051 52.9045082,2.04483691 C45.3968876,2.29761311 42.896393,6.03207278 43.0071356,11.8715928 C43.05372,14.3191033 42.9772881,18.0067766 43.0071356,20.286636 C43.0799412,25.8425138 44.4345152,29.8983047 52.4634906,29.9769317 C53.3340889,29.9853793 56,30 56,30 L56,9.66093828 L49.757132,9.66093828 Z" id="Shape" fill="#184794" fill-rule="nonzero"></path>
            <polygon id="Shape" fill="#6CCAE8" fill-rule="nonzero" points="78 3.00417574 89.250446 3 102.965408 23.0396874 102.965408 3 110 3.00064242 109.998886 30 98.8642863 30 85.028744 12.097648 85.0265162 30 78 30"></polygon>
            <polygon id="Shape" fill="#6CCAE8" fill-rule="nonzero" points="111.003643 3 111 9 137 9 137 3"></polygon>
            <polygon id="Shape" fill="#6CCAE8" fill-rule="nonzero" points="111.003364 13 111 18 136 18 136 13"></polygon>
            <polygon id="Shape" fill="#6CCAE8" fill-rule="nonzero" points="111.003611 24 111 30 137 30 137 24"></polygon>
            <path d="M56.9962251,40.2722631 C57.0479053,41.8882334 56.5526839,42.6077432 56.5041272,42.7030758 C56.3152956,43.0737019 55.5537222,44.0046159 53.5651693,43.9982604 C51.9017476,43.9929084 48.1671415,43.9648104 46.9111985,43.9982604 C44.9612639,44.0484354 44.3411012,43.0091434 44.1000215,41.4112362 C44.0242049,40.9094859 44.0290321,40.2739357 44.0290321,40.2739357 L47.0625477,40.2796222 C47.0625477,40.2796222 47.0247814,40.6887158 47.2093536,41.0322475 C47.3558756,41.3055341 47.658858,41.5396842 48.3071325,41.5396842 C49.2223268,41.5396842 50.0367162,41.5430292 50.9811581,41.5339977 C51.4087978,41.5299837 52.4293402,41.5450362 52.869474,41.4727842 C53.4893528,41.3707617 53.839756,40.9426015 53.8349288,40.3408357 C53.8255582,39.1423216 52.2938926,39.2895017 51.866253,39.2871602 C50.7588196,39.2818082 48.3676154,39.3179342 47.2613178,39.2871602 C45.2403939,39.2316332 44.2607413,38.4064213 44.0384027,36.589082 C43.970253,36.0311357 43.996945,35.0483742 44.0858236,34.615531 C44.4217451,32.9764803 45.1884297,32.1345434 47.2377494,32.0341933 C48.8074652,31.9572583 53.5225758,32.0341933 53.5225758,32.0341933 C55.7042195,32.1623069 56.3289255,33.2608054 56.4899293,34.7827811 C56.5234363,35.0985493 56.4899293,35.8197316 56.4899293,35.8197316 L53.434833,35.8277596 C53.434833,35.8277596 53.5083779,35.4795449 53.3854244,35.2119448 C53.1656415,34.7339441 52.7132975,34.5790705 52.2566942,34.582081 C51.1026919,34.5891055 49.0908546,34.584757 48.1393137,34.584757 C47.96468,34.584757 47.7857869,34.601482 47.6225115,34.6787516 C47.4897441,34.7404345 47.3698366,34.8351339 47.2709724,34.9563867 C47.1713867,35.0788746 47.1035174,35.2322758 47.0753258,35.3985959 C47.0568342,35.5156986 47.0546284,35.6355639 47.0687948,35.7535006 C47.0741441,35.805288 47.0836519,35.8563608 47.0971905,35.9060326 C47.1891927,36.2315013 47.5515222,36.622532 48.0200517,36.621194 C49.2092647,36.6175145 52.0885915,36.6496265 53.195173,36.6335705 C56.6603037,36.5817229 56.9442609,38.6445854 56.9962251,40.2722631 Z" id="Shape" fill="#184794" fill-rule="nonzero"></path>
            <polygon id="Shape" fill="#184794" fill-rule="nonzero" points="63 32 63.0069045 34.9978848 67.478527 34.9978848 67.4790794 44 70.544672 43.9969541 70.544672 35.0009307 75 35.0009307 75 32"></polygon>
            <polygon id="Shape" fill="#184794" fill-rule="nonzero" points="82 32.012507 92.7833692 32 92.7833692 34.7380282 85.010535 34.7380282 85.010535 36.7915493 92.4907662 36.7915493 92.4907662 39.1577465 85.0036535 39.1577465 85.0003503 41.1774648 93 41.1774648 92.9966969 44 82 44"></polygon>
            <path d="M108.593181,32 L104.519277,32 L99,43.9976321 L102.364065,44 L103.343305,41.8242706 L109.726049,41.8242706 L110.66025,44 L114,44 L108.593181,32 Z M104.400188,39.3359831 L106.507046,34.6002537 L108.627719,39.3359831 L104.400188,39.3359831 Z" id="Shape" fill="#184794" fill-rule="nonzero"></path>
            <polygon id="Shape" fill="#184794" fill-rule="nonzero" points="121 32.0027061 125.574778 32.0013531 129.033211 39.9448626 132.452015 32 137 32.0013531 137 44 134.273051 44 134.274167 34.8935307 130.126112 44 127.813326 44 123.700157 34.8654545 123.707134 44 121 44"></polygon>
        </g>
    </g>
</svg>