<?xml version="1.0" encoding="UTF-8"?>
<svg width="40px" height="35px" viewBox="0 0 40 35" version="1.1" xmlns="http://www.w3.org/2000/svg" xmlns:xlink="http://www.w3.org/1999/xlink">
    <!-- Generator: Sketch 49.2 (51160) - http://www.bohemiancoding.com/sketch -->
    <title>smell</title>
    <desc>Created with Sketch.</desc>
    <defs></defs>
    <g id="Page-1" stroke="none" stroke-width="1" fill="none" fill-rule="evenodd">
        <g id="Home" transform="translate(-117.000000, -924.000000)" stroke="#5790F9" stroke-width="2">
            <g id="smell" transform="translate(118.000000, 925.000000)">
                <path d="M0.2,28 C-0.466666667,22 0.533333333,17.6666667 3.2,15 C7.2,11 12.8712161,14.3265244 18.2,10 C21.7525226,7.11565039 23.0858559,3.78231706 22.2,0" id="Path-34-Copy-2"></path>
                <path d="M7.2,30 C6.53333333,24 7.53333333,19.6666667 10.2,17 C14.2,13 19.8712161,16.3265244 25.2,12 C28.7525226,9.11565039 30.0858559,5.78231706 29.2,2" id="Path-34-Copy-3"></path>
                <path d="M15.2,33 C14.5333333,27 15.5333333,22.6666667 18.2,20 C22.2,16 27.8712161,19.3265244 33.2,15 C36.7525226,12.1156504 38.0858559,8.78231706 37.2,5" id="Path-34-Copy-4"></path>
            </g>
        </g>
    </g>
</svg>