<?xml version="1.0" encoding="UTF-8"?>
<svg width="63px" height="29px" viewBox="0 0 63 29" version="1.1" xmlns="http://www.w3.org/2000/svg" xmlns:xlink="http://www.w3.org/1999/xlink">
    <!-- Generator: Sketch 47.1 (45422) - http://www.bohemiancoding.com/sketch -->
    <title>Couch</title>
    <desc>Created with Sketch.</desc>
    <defs>
        <rect id="path-1" x="53" y="26" width="2" height="3"></rect>
    </defs>
    <g id="Page-1" stroke="none" stroke-width="1" fill="none" fill-rule="evenodd">
        <g id="Tablet" transform="translate(-389.000000, -79.000000)">
            <g id="Couch" transform="translate(389.000000, 79.000000)">
                <g id="couch">
                    <g id="Group" stroke="#547DFB">
                        <path d="M7.15811966,19.8672457 L7.15811966,10.2593052 L4,10.2593052 C2.06700338,10.2593052 0.5,11.8263086 0.5,13.7593052 L0.5,17.3672457 C0.5,18.7479575 1.61928813,19.8672457 3,19.8672457 L7.15811966,19.8672457 Z" id="Rectangle"></path>
                        <path d="M55.7222222,10.1923077 L55.7222222,19.8002481 L60.8803419,19.8002481 C61.708769,19.8002481 62.3803419,19.1286753 62.3803419,18.3002481 L62.3803419,13.6923077 C62.3803419,11.7593111 60.8133385,10.1923077 58.8803419,10.1923077 L55.7222222,10.1923077 Z" id="Rectangle-Copy"></path>
                        <path d="M6.72222222,19.8672457 L30.6111111,19.8672457 L30.6111111,4 C30.6111111,2.06700338 29.0441077,0.5 27.1111111,0.5 L10.2222222,0.5 C8.2892256,0.5 6.72222222,2.06700338 6.72222222,4 L6.72222222,19.8672457 Z" id="Rectangle-3"></path>
                        <path d="M30.8333333,19.8672457 L54.7222222,19.8672457 L54.7222222,4 C54.7222222,2.06700338 53.1552188,0.5 51.2222222,0.5 L34.3333333,0.5 C32.4003367,0.5 30.8333333,2.06700338 30.8333333,4 L30.8333333,19.8672457 Z" id="Rectangle-3-Copy"></path>
                        <rect id="Rectangle-2" x="6.72222222" y="16.4230769" width="23.8888889" height="3.24317618" rx="1.62158809"></rect>
                        <rect id="Rectangle-2-Copy" x="30.8333333" y="16.4230769" width="23.8888889" height="3.24317618" rx="1.62158809"></rect>
                        <rect id="Rectangle-4" x="0.5" y="20.5769231" width="30.1111111" height="5.36476427" rx="2"></rect>
                        <rect id="Rectangle-4-Copy" x="30.8333333" y="20.5769231" width="31.5470085" height="5.36476427" rx="2"></rect>
                    </g>
                    <g id="Group-2-Copy-5" transform="translate(2.000000, 12.000000)" stroke="#547DFB">
                        <rect id="Rectangle-7-Copy" transform="translate(1.430514, 1.024095) rotate(40.000000) translate(-1.430514, -1.024095) " x="1.43051404" y="0.616661308" width="1" height="1"></rect>
                        <rect id="Rectangle-7-Copy-2" transform="translate(0.994554, 1.005515) scale(-1, 1) rotate(40.000000) translate(-0.994554, -1.005515) " x="0.994554135" y="0.620763125" width="1" height="1"></rect>
                    </g>
                    <rect id="Rectangle-7" stroke="#547DFB" x="8.5" y="26.5" width="1" height="2"></rect>
                    <g id="Rectangle-7-Copy-3">
                        <use fill="#D8D8D8" fill-rule="evenodd" xlink:href="#path-1"></use>
                        <rect stroke="#547DFB" stroke-width="1" x="53.5" y="26.5" width="1" height="2"></rect>
                    </g>
                </g>
                <g id="Group-2-Copy-5" transform="translate(11.000000, 4.000000)" stroke="#547DFB">
                    <rect id="Rectangle-7-Copy" transform="translate(1.430514, 1.024095) rotate(40.000000) translate(-1.430514, -1.024095) " x="1.43051404" y="0.616661308" width="1" height="1"></rect>
                    <rect id="Rectangle-7-Copy-2" transform="translate(0.994554, 1.005515) scale(-1, 1) rotate(40.000000) translate(-0.994554, -1.005515) " x="0.994554135" y="0.620763125" width="1" height="1"></rect>
                </g>
                <g id="Group-2-Copy-5" transform="translate(11.000000, 10.000000)" stroke="#547DFB">
                    <rect id="Rectangle-7-Copy" transform="translate(1.430514, 1.024095) rotate(40.000000) translate(-1.430514, -1.024095) " x="1.43051404" y="0.616661308" width="1" height="1"></rect>
                    <rect id="Rectangle-7-Copy-2" transform="translate(0.994554, 1.005515) scale(-1, 1) rotate(40.000000) translate(-0.994554, -1.005515) " x="0.994554135" y="0.620763125" width="1" height="1"></rect>
                </g>
                <g id="Group-2-Copy-5" transform="translate(17.000000, 7.000000)" stroke="#547DFB">
                    <rect id="Rectangle-7-Copy" transform="translate(1.430514, 1.024095) rotate(40.000000) translate(-1.430514, -1.024095) " x="1.43051404" y="0.616661308" width="1" height="1"></rect>
                    <rect id="Rectangle-7-Copy-2" transform="translate(0.994554, 1.005515) scale(-1, 1) rotate(40.000000) translate(-0.994554, -1.005515) " x="0.994554135" y="0.620763125" width="1" height="1"></rect>
                </g>
                <g id="Group-2-Copy-5" transform="translate(24.000000, 4.000000)" stroke="#547DFB">
                    <rect id="Rectangle-7-Copy" transform="translate(1.430514, 1.024095) rotate(40.000000) translate(-1.430514, -1.024095) " x="1.43051404" y="0.616661308" width="1" height="1"></rect>
                    <rect id="Rectangle-7-Copy-2" transform="translate(0.994554, 1.005515) scale(-1, 1) rotate(40.000000) translate(-0.994554, -1.005515) " x="0.994554135" y="0.620763125" width="1" height="1"></rect>
                </g>
                <g id="Group-2-Copy-5" transform="translate(24.000000, 10.000000)" stroke="#547DFB">
                    <rect id="Rectangle-7-Copy" transform="translate(1.430514, 1.024095) rotate(40.000000) translate(-1.430514, -1.024095) " x="1.43051404" y="0.616661308" width="1" height="1"></rect>
                    <rect id="Rectangle-7-Copy-2" transform="translate(0.994554, 1.005515) scale(-1, 1) rotate(40.000000) translate(-0.994554, -1.005515) " x="0.994554135" y="0.620763125" width="1" height="1"></rect>
                </g>
                <g id="Group-2-Copy-5" transform="translate(35.000000, 4.000000)" stroke="#547DFB">
                    <rect id="Rectangle-7-Copy" transform="translate(1.430514, 1.024095) rotate(40.000000) translate(-1.430514, -1.024095) " x="1.43051404" y="0.616661308" width="1" height="1"></rect>
                    <rect id="Rectangle-7-Copy-2" transform="translate(0.994554, 1.005515) scale(-1, 1) rotate(40.000000) translate(-0.994554, -1.005515) " x="0.994554135" y="0.620763125" width="1" height="1"></rect>
                </g>
                <g id="Group-2-Copy-5" transform="translate(35.000000, 11.000000)" stroke="#547DFB">
                    <rect id="Rectangle-7-Copy" transform="translate(1.430514, 1.024095) rotate(40.000000) translate(-1.430514, -1.024095) " x="1.43051404" y="0.616661308" width="1" height="1"></rect>
                    <rect id="Rectangle-7-Copy-2" transform="translate(0.994554, 1.005515) scale(-1, 1) rotate(40.000000) translate(-0.994554, -1.005515) " x="0.994554135" y="0.620763125" width="1" height="1"></rect>
                </g>
                <g id="Group-2-Copy-5" transform="translate(41.000000, 7.000000)" stroke="#547DFB">
                    <rect id="Rectangle-7-Copy" transform="translate(1.430514, 1.024095) rotate(40.000000) translate(-1.430514, -1.024095) " x="1.43051404" y="0.616661308" width="1" height="1"></rect>
                    <rect id="Rectangle-7-Copy-2" transform="translate(0.994554, 1.005515) scale(-1, 1) rotate(40.000000) translate(-0.994554, -1.005515) " x="0.994554135" y="0.620763125" width="1" height="1"></rect>
                </g>
                <g id="Group-2-Copy-5" transform="translate(49.000000, 4.000000)" stroke="#547DFB">
                    <rect id="Rectangle-7-Copy" transform="translate(1.430514, 1.024095) rotate(40.000000) translate(-1.430514, -1.024095) " x="1.43051404" y="0.616661308" width="1" height="1"></rect>
                    <rect id="Rectangle-7-Copy-2" transform="translate(0.994554, 1.005515) scale(-1, 1) rotate(40.000000) translate(-0.994554, -1.005515) " x="0.994554135" y="0.620763125" width="1" height="1"></rect>
                </g>
                <g id="Group-2-Copy-5" transform="translate(49.000000, 11.000000)" stroke="#547DFB">
                    <rect id="Rectangle-7-Copy" transform="translate(1.430514, 1.024095) rotate(40.000000) translate(-1.430514, -1.024095) " x="1.43051404" y="0.616661308" width="1" height="1"></rect>
                    <rect id="Rectangle-7-Copy-2" transform="translate(0.994554, 1.005515) scale(-1, 1) rotate(40.000000) translate(-0.994554, -1.005515) " x="0.994554135" y="0.620763125" width="1" height="1"></rect>
                </g>
                <g id="Group-2-Copy-5" transform="translate(58.000000, 12.000000)" stroke="#547DFB">
                    <rect id="Rectangle-7-Copy" transform="translate(1.430514, 1.024095) rotate(40.000000) translate(-1.430514, -1.024095) " x="1.43051404" y="0.616661308" width="1" height="1"></rect>
                    <rect id="Rectangle-7-Copy-2" transform="translate(0.994554, 1.005515) scale(-1, 1) rotate(40.000000) translate(-0.994554, -1.005515) " x="0.994554135" y="0.620763125" width="1" height="1"></rect>
                </g>
            </g>
        </g>
    </g>
</svg>