<?xml version="1.0" encoding="UTF-8"?>
<svg width="36px" height="30px" viewBox="0 0 36 30" version="1.1" xmlns="http://www.w3.org/2000/svg" xmlns:xlink="http://www.w3.org/1999/xlink">
    <!-- Generator: Sketch 47.1 (45422) - http://www.bohemiancoding.com/sketch -->
    <title>sofa</title>
    <desc>Created with Sketch.</desc>
    <defs>
        <rect id="path-1" x="0.93051404" y="0.116661308" width="1" height="1.81486646"></rect>
        <rect id="path-2" x="27" y="27" width="1" height="3"></rect>
        <rect id="path-3" x="0.93051404" y="0.116661308" width="1" height="1.81486646"></rect>
        <rect id="path-4" x="0.93051404" y="0.116661308" width="1" height="1.81486646"></rect>
        <rect id="path-5" x="0.93051404" y="0.116661308" width="1" height="1.81486646"></rect>
        <rect id="path-6" x="0.93051404" y="0.116661308" width="1" height="1.81486646"></rect>
        <rect id="path-7" x="0.93051404" y="0.116661308" width="1" height="1.81486646"></rect>
        <rect id="path-8" x="0.93051404" y="0.116661308" width="1" height="1.81486646"></rect>
    </defs>
    <g id="Page-1" stroke="none" stroke-width="1" fill="none" fill-rule="evenodd">
        <g id="Tablet" transform="translate(-305.000000, -79.000000)">
            <g id="sofa" transform="translate(305.000000, 79.000000)">
                <g>
                    <g id="Group" stroke="#547DFB">
                        <path d="M6.88461538,20.4032258 L6.88461538,10.516129 L4,10.516129 C2.06700338,10.516129 0.5,12.0831324 0.5,14.016129 L0.5,17.9032258 C0.5,19.2839377 1.61928813,20.4032258 3,20.4032258 L6.88461538,20.4032258 Z" id="Rectangle"></path>
                        <path d="M29.1153846,10.516129 L29.1153846,20.4032258 L34,20.4032258 C34.8284271,20.4032258 35.5,19.7316529 35.5,18.9032258 L35.5,14.016129 C35.5,12.0831324 33.9329966,10.516129 32,10.516129 L29.1153846,10.516129 Z" id="Rectangle-Copy"></path>
                        <path d="M6.5,20.4032258 L29.5,20.4032258 L29.5,4 C29.5,2.06700338 27.9329966,0.5 26,0.5 L10,0.5 C8.06700338,0.5 6.5,2.06700338 6.5,4 L6.5,20.4032258 Z" id="Rectangle-3"></path>
                        <rect id="Rectangle-2" x="6.5" y="17.0483871" width="23" height="3.35483871" rx="1.67741935"></rect>
                        <rect id="Rectangle-4" x="0.5" y="20.9677419" width="35" height="5.53225806" rx="2"></rect>
                    </g>
                    <g id="Group-2-Copy-5" transform="translate(2.000000, 12.000000)">
                        <g id="Rectangle-7-Copy" transform="translate(1.430514, 1.024095) rotate(40.000000) translate(-1.430514, -1.024095) ">
                            <use fill="#D8D8D8" fill-rule="evenodd" xlink:href="#path-1"></use>
                            <rect stroke="#547DFB" stroke-width="1" x="1.43051404" y="0.616661308" width="1" height="1"></rect>
                        </g>
                        <rect id="Rectangle-7-Copy-2" stroke="#547DFB" transform="translate(0.994554, 1.005515) scale(-1, 1) rotate(40.000000) translate(-0.994554, -1.005515) " x="0.994554135" y="0.620763125" width="1" height="1"></rect>
                    </g>
                    <rect id="Rectangle-7" stroke="#547DFB" x="7.5" y="27.5" width="1" height="2"></rect>
                    <g id="Rectangle-7-Copy-3">
                        <use fill="#D8D8D8" fill-rule="evenodd" xlink:href="#path-2"></use>
                        <rect stroke="#547DFB" stroke-width="1" x="27.5" y="27.5" width="1" height="2"></rect>
                    </g>
                </g>
                <g id="Group-2-Copy-5" transform="translate(10.000000, 11.000000)">
                    <g id="Rectangle-7-Copy" transform="translate(1.430514, 1.024095) rotate(40.000000) translate(-1.430514, -1.024095) ">
                        <use fill="#D8D8D8" fill-rule="evenodd" xlink:href="#path-3"></use>
                        <rect stroke="#547DFB" stroke-width="1" x="1.43051404" y="0.616661308" width="1" height="1"></rect>
                    </g>
                    <rect id="Rectangle-7-Copy-2" stroke="#547DFB" transform="translate(0.994554, 1.005515) scale(-1, 1) rotate(40.000000) translate(-0.994554, -1.005515) " x="0.994554135" y="0.620763125" width="1" height="1"></rect>
                </g>
                <g id="Group-2-Copy-5" transform="translate(10.000000, 4.000000)">
                    <g id="Rectangle-7-Copy" transform="translate(1.430514, 1.024095) rotate(40.000000) translate(-1.430514, -1.024095) ">
                        <use fill="#D8D8D8" fill-rule="evenodd" xlink:href="#path-4"></use>
                        <rect stroke="#547DFB" stroke-width="1" x="1.43051404" y="0.616661308" width="1" height="1"></rect>
                    </g>
                    <rect id="Rectangle-7-Copy-2" stroke="#547DFB" transform="translate(0.994554, 1.005515) scale(-1, 1) rotate(40.000000) translate(-0.994554, -1.005515) " x="0.994554135" y="0.620763125" width="1" height="1"></rect>
                </g>
                <g id="Group-2-Copy-5" transform="translate(16.000000, 7.000000)">
                    <g id="Rectangle-7-Copy" transform="translate(1.430514, 1.024095) rotate(40.000000) translate(-1.430514, -1.024095) ">
                        <use fill="#D8D8D8" fill-rule="evenodd" xlink:href="#path-5"></use>
                        <rect stroke="#547DFB" stroke-width="1" x="1.43051404" y="0.616661308" width="1" height="1"></rect>
                    </g>
                    <rect id="Rectangle-7-Copy-2" stroke="#547DFB" transform="translate(0.994554, 1.005515) scale(-1, 1) rotate(40.000000) translate(-0.994554, -1.005515) " x="0.994554135" y="0.620763125" width="1" height="1"></rect>
                </g>
                <g id="Group-2-Copy-5" transform="translate(23.000000, 10.000000)">
                    <g id="Rectangle-7-Copy" transform="translate(1.430514, 1.024095) rotate(40.000000) translate(-1.430514, -1.024095) ">
                        <use fill="#D8D8D8" fill-rule="evenodd" xlink:href="#path-6"></use>
                        <rect stroke="#547DFB" stroke-width="1" x="1.43051404" y="0.616661308" width="1" height="1"></rect>
                    </g>
                    <rect id="Rectangle-7-Copy-2" stroke="#547DFB" transform="translate(0.994554, 1.005515) scale(-1, 1) rotate(40.000000) translate(-0.994554, -1.005515) " x="0.994554135" y="0.620763125" width="1" height="1"></rect>
                </g>
                <g id="Group-2-Copy-5" transform="translate(23.000000, 4.000000)">
                    <g id="Rectangle-7-Copy" transform="translate(1.430514, 1.024095) rotate(40.000000) translate(-1.430514, -1.024095) ">
                        <use fill="#D8D8D8" fill-rule="evenodd" xlink:href="#path-7"></use>
                        <rect stroke="#547DFB" stroke-width="1" x="1.43051404" y="0.616661308" width="1" height="1"></rect>
                    </g>
                    <rect id="Rectangle-7-Copy-2" stroke="#547DFB" transform="translate(0.994554, 1.005515) scale(-1, 1) rotate(40.000000) translate(-0.994554, -1.005515) " x="0.994554135" y="0.620763125" width="1" height="1"></rect>
                </g>
                <g id="Group-2-Copy-5" transform="translate(31.000000, 12.000000)">
                    <g id="Rectangle-7-Copy" transform="translate(1.430514, 1.024095) rotate(40.000000) translate(-1.430514, -1.024095) ">
                        <use fill="#D8D8D8" fill-rule="evenodd" xlink:href="#path-8"></use>
                        <rect stroke="#547DFB" stroke-width="1" x="1.43051404" y="0.616661308" width="1" height="1"></rect>
                    </g>
                    <rect id="Rectangle-7-Copy-2" stroke="#547DFB" transform="translate(0.994554, 1.005515) scale(-1, 1) rotate(40.000000) translate(-0.994554, -1.005515) " x="0.994554135" y="0.620763125" width="1" height="1"></rect>
                </g>
            </g>
        </g>
    </g>
</svg>